<mxfile host="app.diagrams.net" modified="2023-10-09T03:02:28.281Z" agent="Mozilla/5.0 (Windows NT 10.0; Win64; x64) AppleWebKit/537.36 (KHTML, like Gecko) Chrome/117.0.0.0 Safari/537.36" etag="zWkfvYUSVbflI_w5JHXz" version="22.0.4" type="github">
  <diagram name="Trang-1" id="lrLMCMZ89S8RirNt2OGC">
    <mxGraphModel dx="1050" dy="566" grid="1" gridSize="10" guides="1" tooltips="1" connect="1" arrows="1" fold="1" page="1" pageScale="1" pageWidth="827" pageHeight="1169" background="none" math="0" shadow="0">
      <root>
        <mxCell id="0" />
        <mxCell id="1" parent="0" />
        <mxCell id="62X3WdJCpgT0yJd-97B1-1" value="" style="whiteSpace=wrap;html=1;aspect=fixed;" vertex="1" parent="1">
          <mxGeometry y="110" width="190" height="190" as="geometry" />
        </mxCell>
        <mxCell id="62X3WdJCpgT0yJd-97B1-2" value="TeacherHome" style="text;html=1;strokeColor=none;fillColor=none;align=center;verticalAlign=middle;whiteSpace=wrap;rounded=0;fontStyle=1" vertex="1" parent="1">
          <mxGeometry x="50" y="110" width="60" height="30" as="geometry" />
        </mxCell>
        <mxCell id="62X3WdJCpgT0yJd-97B1-3" value="View class" style="text;html=1;strokeColor=none;fillColor=none;align=left;verticalAlign=middle;whiteSpace=wrap;rounded=0;" vertex="1" parent="1">
          <mxGeometry y="140" width="110" height="30" as="geometry" />
        </mxCell>
        <mxCell id="62X3WdJCpgT0yJd-97B1-4" value="Input Student mark" style="text;html=1;strokeColor=none;fillColor=none;align=left;verticalAlign=middle;whiteSpace=wrap;rounded=0;" vertex="1" parent="1">
          <mxGeometry y="190" width="110" height="30" as="geometry" />
        </mxCell>
        <mxCell id="62X3WdJCpgT0yJd-97B1-5" value="View&amp;nbsp;Weekly&amp;nbsp;&lt;span style=&quot;background-color: initial;&quot;&gt;timetable&lt;/span&gt;" style="text;html=1;strokeColor=none;fillColor=none;align=left;verticalAlign=middle;whiteSpace=wrap;rounded=0;" vertex="1" parent="1">
          <mxGeometry y="240" width="140" height="30" as="geometry" />
        </mxCell>
        <mxCell id="62X3WdJCpgT0yJd-97B1-13" value="Mon" style="swimlane;startSize=20;html=1;" vertex="1" parent="1">
          <mxGeometry x="400" y="35" width="80" height="240" as="geometry" />
        </mxCell>
        <mxCell id="62X3WdJCpgT0yJd-97B1-14" value="Tue" style="swimlane;startSize=20;html=1;" vertex="1" parent="1">
          <mxGeometry x="480" y="35" width="80" height="240" as="geometry" />
        </mxCell>
        <mxCell id="62X3WdJCpgT0yJd-97B1-15" value="Wen" style="swimlane;startSize=20;html=1;" vertex="1" parent="1">
          <mxGeometry x="560" y="35" width="80" height="240" as="geometry" />
        </mxCell>
        <mxCell id="62X3WdJCpgT0yJd-97B1-16" value="Thi" style="swimlane;startSize=20;html=1;" vertex="1" parent="1">
          <mxGeometry x="640" y="35" width="80" height="240" as="geometry" />
        </mxCell>
        <mxCell id="62X3WdJCpgT0yJd-97B1-17" value="Fri" style="swimlane;startSize=20;html=1;" vertex="1" parent="1">
          <mxGeometry x="720" y="35" width="80" height="240" as="geometry" />
        </mxCell>
        <mxCell id="62X3WdJCpgT0yJd-97B1-18" value="&lt;b&gt;Timetable&lt;/b&gt;" style="text;html=1;strokeColor=none;fillColor=none;align=center;verticalAlign=middle;whiteSpace=wrap;rounded=0;" vertex="1" parent="1">
          <mxGeometry x="570" width="60" height="30" as="geometry" />
        </mxCell>
      </root>
    </mxGraphModel>
  </diagram>
</mxfile>
